<svg xmlns="http://www.w3.org/2000/svg" viewBox="0 0 1200 700" font-family="'Noto Sans Thai','Segoe UI','Sarabun',sans-serif">
  <defs>
    <filter id="sh" x="-6%" y="-6%" width="112%" height="120%">
      <feDropShadow dx="0" dy="3" stdDeviation="7" flood-color="#16243a" flood-opacity="0.14"/>
    </filter>
    <linearGradient id="navy" x1="0" y1="0" x2="1" y2="1">
      <stop offset="0" stop-color="#16304f"/>
      <stop offset="1" stop-color="#1e3a5f"/>
    </linearGradient>
  </defs>

  <rect width="1200" height="700" fill="#eef2f7"/>

  <!-- Title -->
  <g>
    <rect x="40" y="30" width="40" height="40" rx="9" fill="#1e3a5f"/>
    <text x="60" y="57" fill="#fff" font-size="17" font-weight="700" text-anchor="middle">HR</text>
    <text x="92" y="50" fill="#1f2937" font-size="24" font-weight="700">HR PRO — ภาพรวมการทำงานของระบบ</text>
    <text x="92" y="71" fill="#5b6675" font-size="13">ระบบบริหารทรัพยากรบุคคลสำหรับองค์กรขนาดใหญ่ · Laravel · Corporate UI</text>
  </g>

  <!-- ================= Screen 1 — Login ================= -->
  <g>
    <rect x="40" y="100" width="360" height="290" rx="12" fill="#ffffff" stroke="#e3e8ef" filter="url(#sh)"/>
    <rect x="40" y="100" width="360" height="30" rx="12" fill="#f1f4f8"/>
    <circle cx="58" cy="115" r="4" fill="#f87171"/><circle cx="72" cy="115" r="4" fill="#fbbf24"/><circle cx="86" cy="115" r="4" fill="#34d399"/>
    <rect x="110" y="108" width="270" height="14" rx="7" fill="#e3e8ef"/>
    <text x="118" y="119" fill="#8a94a6" font-size="9">/login</text>

    <!-- left navy panel -->
    <rect x="40" y="130" width="150" height="260" fill="url(#navy)"/>
    <rect x="60" y="158" width="30" height="30" rx="7" fill="#2563eb"/>
    <text x="75" y="179" fill="#fff" font-size="13" font-weight="700" text-anchor="middle">HR</text>
    <text x="60" y="218" fill="#ffffff" font-size="13" font-weight="700">ระบบ HR</text>
    <text x="60" y="236" fill="#c9d6ea" font-size="11">องค์กรยุคใหม่</text>
    <g fill="#8fb4ff"><circle cx="64" cy="268" r="3"/><circle cx="64" cy="290" r="3"/><circle cx="64" cy="312" r="3"/></g>
    <g fill="#dde7f5" font-size="10"><text x="74" y="271">ข้อมูลพนักงาน</text><text x="74" y="293">ระบบลางาน</text><text x="74" y="315">ลงเวลาทำงาน</text></g>

    <!-- right form -->
    <text x="206" y="162" fill="#5b6675" font-size="10" font-weight="600">อีเมล</text>
    <rect x="206" y="168" width="174" height="26" rx="6" fill="#fff" stroke="#cbd5e1"/>
    <text x="214" y="185" fill="#8a94a6" font-size="10">you@company.com</text>
    <text x="206" y="214" fill="#5b6675" font-size="10" font-weight="600">รหัสผ่าน</text>
    <rect x="206" y="220" width="174" height="26" rx="6" fill="#fff" stroke="#cbd5e1"/>
    <text x="214" y="237" fill="#cbd5e1" font-size="11">••••••••</text>
    <rect x="206" y="258" width="174" height="30" rx="6" fill="#2563eb"/>
    <text x="293" y="277" fill="#fff" font-size="12" font-weight="600" text-anchor="middle">เข้าสู่ระบบ</text>
    <rect x="206" y="300" width="174" height="38" rx="6" fill="#f7f9fc" stroke="#eef1f5"/>
    <text x="214" y="316" fill="#8a94a6" font-size="9">บัญชีทดลอง</text>
    <text x="214" y="330" fill="#5b6675" font-size="9" font-weight="600">admin@hrpro.local / password</text>
  </g>

  <!-- ================= Screen 2 — Dashboard ================= -->
  <g>
    <rect x="420" y="100" width="360" height="290" rx="12" fill="#ffffff" stroke="#e3e8ef" filter="url(#sh)"/>
    <rect x="420" y="100" width="360" height="30" rx="12" fill="#f1f4f8"/>
    <circle cx="438" cy="115" r="4" fill="#f87171"/><circle cx="452" cy="115" r="4" fill="#fbbf24"/><circle cx="466" cy="115" r="4" fill="#34d399"/>
    <rect x="490" y="108" width="282" height="14" rx="7" fill="#e3e8ef"/>
    <text x="498" y="119" fill="#8a94a6" font-size="9">/ (แดชบอร์ด)</text>

    <!-- sidebar -->
    <rect x="420" y="130" width="60" height="260" fill="url(#navy)"/>
    <rect x="430" y="146" width="40" height="13" rx="4" fill="#2563eb"/>
    <g fill="#33507a"><rect x="430" y="167" width="40" height="13" rx="4"/><rect x="430" y="188" width="40" height="13" rx="4"/><rect x="430" y="209" width="40" height="13" rx="4"/><rect x="430" y="230" width="40" height="13" rx="4"/><rect x="430" y="251" width="40" height="13" rx="4"/></g>

    <!-- main -->
    <text x="494" y="152" fill="#1f2937" font-size="13" font-weight="700">แดชบอร์ด</text>
    <!-- stat tiles -->
    <g>
      <rect x="494" y="164" width="86" height="56" rx="8" fill="#fff" stroke="#e3e8ef"/>
      <rect x="502" y="174" width="20" height="20" rx="6" fill="#e7eefb"/>
      <text x="502" y="212" fill="#1f2937" font-size="17" font-weight="700">152</text>
      <text x="528" y="183" fill="#5b6675" font-size="8">พนักงาน</text>

      <rect x="588" y="164" width="86" height="56" rx="8" fill="#fff" stroke="#e3e8ef"/>
      <rect x="596" y="174" width="20" height="20" rx="6" fill="#fdf2e0"/>
      <text x="596" y="212" fill="#1f2937" font-size="17" font-weight="700">8</text>
      <text x="622" y="183" fill="#5b6675" font-size="8">ลาวันนี้</text>

      <rect x="682" y="164" width="86" height="56" rx="8" fill="#fff" stroke="#e3e8ef"/>
      <rect x="690" y="174" width="20" height="20" rx="6" fill="#fde8e8"/>
      <text x="690" y="212" fill="#1f2937" font-size="17" font-weight="700">5</text>
      <text x="716" y="183" fill="#5b6675" font-size="8">รออนุมัติ</text>
    </g>
    <!-- bar chart -->
    <text x="494" y="244" fill="#5b6675" font-size="9" font-weight="600">พนักงานแยกตามแผนก</text>
    <line x1="494" y1="372" x2="768" y2="372" stroke="#e3e8ef"/>
    <g fill="#2563eb">
      <rect x="500" y="300" width="30" height="72" rx="3"/>
      <rect x="544" y="280" width="30" height="92" rx="3"/>
      <rect x="588" y="318" width="30" height="54" rx="3"/>
      <rect x="632" y="262" width="30" height="110" rx="3"/>
      <rect x="676" y="330" width="30" height="42" rx="3"/>
      <rect x="720" y="312" width="30" height="60" rx="3"/>
    </g>
  </g>

  <!-- ================= Screen 3 — Leave approvals ================= -->
  <g>
    <rect x="800" y="100" width="360" height="290" rx="12" fill="#ffffff" stroke="#e3e8ef" filter="url(#sh)"/>
    <rect x="800" y="100" width="360" height="30" rx="12" fill="#f1f4f8"/>
    <circle cx="818" cy="115" r="4" fill="#f87171"/><circle cx="832" cy="115" r="4" fill="#fbbf24"/><circle cx="846" cy="115" r="4" fill="#34d399"/>
    <rect x="870" y="108" width="282" height="14" rx="7" fill="#e3e8ef"/>
    <text x="878" y="119" fill="#8a94a6" font-size="9">/leave-approvals</text>

    <text x="816" y="152" fill="#1f2937" font-size="13" font-weight="700">อนุมัติการลา</text>
    <!-- table header -->
    <rect x="816" y="162" width="328" height="22" fill="#f7f9fc"/>
    <text x="824" y="177" fill="#8a94a6" font-size="8" font-weight="700">พนักงาน</text>
    <text x="960" y="177" fill="#8a94a6" font-size="8" font-weight="700">ประเภท</text>
    <text x="1050" y="177" fill="#8a94a6" font-size="8" font-weight="700">การจัดการ</text>

    <!-- rows -->
    <g font-size="10">
      <!-- row 1 -->
      <text x="824" y="206" fill="#1f2937" font-weight="600">สมชาย ใจดี</text>
      <text x="960" y="206" fill="#5b6675">ลาพักร้อน</text>
      <rect x="1044" y="196" width="22" height="16" rx="4" fill="#e7f6ec"/><text x="1055" y="208" fill="#15803d" font-size="9" text-anchor="middle">✓</text>
      <rect x="1072" y="196" width="22" height="16" rx="4" fill="#fde8e8"/><text x="1083" y="208" fill="#b91c1c" font-size="9" text-anchor="middle">✕</text>
      <line x1="816" y1="220" x2="1144" y2="220" stroke="#eef1f5"/>
      <!-- row 2 -->
      <text x="824" y="244" fill="#1f2937" font-weight="600">อาทิตย์ มั่นคง</text>
      <text x="960" y="244" fill="#5b6675">ลาป่วย</text>
      <rect x="1044" y="234" width="22" height="16" rx="4" fill="#e7f6ec"/><text x="1055" y="246" fill="#15803d" font-size="9" text-anchor="middle">✓</text>
      <rect x="1072" y="234" width="22" height="16" rx="4" fill="#fde8e8"/><text x="1083" y="246" fill="#b91c1c" font-size="9" text-anchor="middle">✕</text>
      <line x1="816" y1="258" x2="1144" y2="258" stroke="#eef1f5"/>
      <!-- row 3 -->
      <text x="824" y="282" fill="#1f2937" font-weight="600">มานี รักงาน</text>
      <text x="960" y="282" fill="#5b6675">ลากิจ</text>
      <rect x="1044" y="272" width="22" height="16" rx="4" fill="#e7f6ec"/><text x="1055" y="284" fill="#15803d" font-size="9" text-anchor="middle">✓</text>
      <rect x="1072" y="272" width="22" height="16" rx="4" fill="#fde8e8"/><text x="1083" y="284" fill="#b91c1c" font-size="9" text-anchor="middle">✕</text>
    </g>
    <!-- status legend -->
    <rect x="816" y="306" width="64" height="18" rx="9" fill="#fdf2e0"/><text x="848" y="319" fill="#b45309" font-size="9" text-anchor="middle">รออนุมัติ</text>
    <rect x="888" y="306" width="64" height="18" rx="9" fill="#e7f6ec"/><text x="920" y="319" fill="#15803d" font-size="9" text-anchor="middle">อนุมัติแล้ว</text>
    <rect x="960" y="306" width="64" height="18" rx="9" fill="#fde8e8"/><text x="992" y="319" fill="#b91c1c" font-size="9" text-anchor="middle">ไม่อนุมัติ</text>
    <text x="816" y="350" fill="#8a94a6" font-size="9">ตัดวันทำงานอัตโนมัติ · อัปเดตยอดวันลา · แจ้งเตือนพนักงาน</text>
  </g>

  <!-- ================= Workflow ================= -->
  <text x="40" y="424" fill="#1f2937" font-size="14" font-weight="700">ลำดับการทำงาน: วงจรการลา (Leave Workflow)</text>
  <g font-size="11">
    <!-- box 1 -->
    <rect x="40" y="438" width="250" height="64" rx="10" fill="#2563eb"/>
    <text x="56" y="466" fill="#fff" font-weight="700">1 · พนักงานยื่นใบลา</text>
    <text x="56" y="485" fill="#dbe7ff" font-size="10">เลือกประเภท · ช่วงวันที่ · เหตุผล</text>
    <!-- box 2 -->
    <rect x="330" y="438" width="250" height="64" rx="10" fill="#fff" stroke="#cbd5e1"/>
    <text x="346" y="466" fill="#1e3a5f" font-weight="700">2 · ระบบตรวจ & กันยอด</text>
    <text x="346" y="485" fill="#5b6675" font-size="10">ตัดเฉพาะวันทำงาน · กัน pending</text>
    <!-- box 3 -->
    <rect x="620" y="438" width="250" height="64" rx="10" fill="#fff" stroke="#cbd5e1"/>
    <text x="636" y="466" fill="#1e3a5f" font-weight="700">3 · หัวหน้า/HR อนุมัติ</text>
    <text x="636" y="485" fill="#5b6675" font-size="10">อนุมัติ หรือ ปฏิเสธพร้อมเหตุผล</text>
    <!-- box 4 -->
    <rect x="910" y="438" width="250" height="64" rx="10" fill="#e7f6ec" stroke="#bfe6cb"/>
    <text x="926" y="466" fill="#15803d" font-weight="700">4 · อัปเดต & แจ้งเตือน</text>
    <text x="926" y="485" fill="#3f7d57" font-size="10">ยอดวันลาเปลี่ยน · แจ้งพนักงาน</text>
    <!-- arrows -->
    <g fill="#94a3b8"><path d="M296 470 l14 -7 v14 z"/><path d="M586 470 l14 -7 v14 z"/><path d="M876 470 l14 -7 v14 z"/></g>
  </g>

  <!-- ================= Module map ================= -->
  <text x="40" y="548" fill="#1f2937" font-size="14" font-weight="700">โมดูลในระบบ (Modules)</text>
  <g font-size="10.5" text-anchor="middle">
    <!-- row 1 -->
    <rect x="40"  y="560" width="170" height="28" rx="8" fill="#fff" stroke="#e3e8ef"/><text x="125"  y="578" fill="#1e3a5f">แดชบอร์ด</text>
    <rect x="230" y="560" width="170" height="28" rx="8" fill="#fff" stroke="#e3e8ef"/><text x="315"  y="578" fill="#1e3a5f">พนักงาน</text>
    <rect x="420" y="560" width="170" height="28" rx="8" fill="#fff" stroke="#e3e8ef"/><text x="505"  y="578" fill="#1e3a5f">แผนก / ตำแหน่ง</text>
    <rect x="610" y="560" width="170" height="28" rx="8" fill="#fff" stroke="#e3e8ef"/><text x="695"  y="578" fill="#1e3a5f">ประเภทการลา</text>
    <rect x="800" y="560" width="170" height="28" rx="8" fill="#fff" stroke="#e3e8ef"/><text x="885"  y="578" fill="#1e3a5f">คำขอลา</text>
    <rect x="990" y="560" width="170" height="28" rx="8" fill="#fff" stroke="#e3e8ef"/><text x="1075" y="578" fill="#1e3a5f">อนุมัติการลา</text>
    <!-- row 2 -->
    <rect x="40"  y="596" width="170" height="28" rx="8" fill="#fff" stroke="#e3e8ef"/><text x="125"  y="614" fill="#1e3a5f">ลงเวลาทำงาน</text>
    <rect x="230" y="596" width="170" height="28" rx="8" fill="#fff" stroke="#e3e8ef"/><text x="315"  y="614" fill="#1e3a5f">ประกาศ</text>
    <rect x="420" y="596" width="170" height="28" rx="8" fill="#fff" stroke="#e3e8ef"/><text x="505"  y="614" fill="#1e3a5f">ผู้ใช้งานระบบ</text>
    <rect x="610" y="596" width="170" height="28" rx="8" fill="#fff" stroke="#e3e8ef"/><text x="695"  y="614" fill="#1e3a5f">บทบาท / สิทธิ์</text>
    <rect x="800" y="596" width="170" height="28" rx="8" fill="#fff" stroke="#e3e8ef"/><text x="885"  y="614" fill="#1e3a5f">รายงาน</text>
    <rect x="990" y="596" width="170" height="28" rx="8" fill="#fff" stroke="#e3e8ef"/><text x="1075" y="614" fill="#1e3a5f">บันทึกการใช้งาน</text>
  </g>

  <!-- Footer -->
  <text x="40" y="662" fill="#8a94a6" font-size="11">Live demo: https://hr-pro-jqqx.onrender.com  ·  บัญชีทดลอง: admin@hrpro.local / password</text>
</svg>
